<svg viewBox="0 0 96 96" xmlns="http://www.w3.org/2000/svg" xmlns:xlink="http://www.w3.org/1999/xlink" id="Icons_Dolphin_M" overflow="hidden"><g id="Icons"><path d="M84.686 31.678 79.913 28.438C76.926 21.628 69.482 13.514 54.989 13.514 53.171 13.5182 51.3551 13.6367 49.552 13.869 46.1747 14.2927 42.8697 15.1689 39.726 16.474 38.5144 16.9648 37.1403 16.8401 36.037 16.139 32.9544 14.1262 29.3604 13.037 25.679 13 23.0115 13.0366 20.3927 13.7194 18.047 14.99 17.0694 15.5148 16.7024 16.7328 17.2272 17.7103 17.3814 17.9974 17.603 18.2427 17.873 18.425L23.632 22.283C25.463 23.5248 25.941 26.0155 24.7 27.847 24.646 27.928 24.588 28.007 24.528 28.083 20.172 33.683 17.893 40.735 16.904 45.683 15.839 51.022 15.435 56.483 17.804 66.371 18.858 70.771 16.197 72.303 12.893 75.733 10.893 77.808 9.802 79.489 10.046 81.914 10.5935 82.8647 11.7657 83.2553 12.774 82.823L20.355 79.423C21.2933 78.9517 22.0689 78.2101 22.582 77.294 22.9757 76.6641 23.8055 76.4727 24.4354 76.8664 24.4363 76.8669 24.4371 76.8675 24.438 76.868 24.5616 76.9449 24.6717 77.0415 24.764 77.154 25.4144 77.9444 26.3175 78.4862 27.321 78.688L37.043 80.942C37.0975 80.9539 37.1532 80.9599 37.209 80.96 37.5869 80.9596 37.9131 80.6948 37.991 80.325 38.0088 80.2422 38.0132 80.1572 38.004 80.073 37.704 77.056 36.132 75.132 33.004 73.237 27.604 69.966 25.581 67.09 25.221 62.865 24.7523 58.8005 25.6756 54.6971 27.84 51.225 30.649 46.669 36.12 42.709 45.72 40.194L42.081 45.41C41.4497 46.3204 41.676 47.5702 42.5864 48.2015 43.0219 48.5035 43.5592 48.6209 44.081 48.528 50.5477 47.4342 56.3809 43.9861 60.457 38.848L82.485 38.848C84.6522 38.8453 86.4068 37.0863 86.4042 34.9192 86.4026 33.6209 85.7589 32.4075 84.685 31.678ZM82.486 36.848 59.49 36.848 58.89 37.605C55.1231 42.3589 49.7267 45.5465 43.745 46.551 43.7389 46.5514 43.7337 46.5469 43.7332 46.5408 43.7331 46.5384 43.7337 46.536 43.735 46.534L51.255 35.882C51.5731 35.4305 51.465 34.8066 51.0135 34.4885 50.562 34.1704 49.9381 34.2785 49.62 34.73L47.569 37.643 45.215 38.259C35.933 40.691 29.515 44.7 26.144 50.167 23.7515 54.0177 22.7261 58.562 23.233 63.067 23.668 68.073 26.12 71.407 31.969 74.951 33.917 76.131 35.033 77.204 35.594 78.538 35.594 78.549 35.594 78.555 35.582 78.553L27.774 76.743 27.746 76.736 27.717 76.73C27.1654 76.6189 26.6689 76.3212 26.311 75.887 25.6752 75.1139 24.727 74.6657 23.726 74.665 22.5722 74.6615 21.4988 75.2555 20.889 76.235L20.863 76.277 20.838 76.32C20.5281 76.8764 20.0604 77.3288 19.494 77.62L12.041 80.963C12.032 80.963 12.025 80.963 12.026 80.952 12.126 79.786 12.774 78.743 14.335 77.123 14.855 76.583 15.36 76.09 15.849 75.614 18.449 73.082 20.897 70.691 19.749 65.907 17.549 56.728 17.782 51.514 18.867 46.077 19.467 43.061 21.382 35.389 26.1 29.324 26.19 29.209 26.277 29.091 26.358 28.97 28.2177 26.2227 27.4981 22.4879 24.7508 20.6282 24.7482 20.6265 24.7456 20.6247 24.743 20.623L19.012 16.76C19.007 16.7565 19.0058 16.7496 19.0093 16.7447 19.0101 16.7436 19.011 16.7427 19.012 16.742 21.0642 15.6359 23.352 15.0385 25.683 15 28.983 15.0378 32.2033 16.0187 34.964 17.827 36.618 18.878 38.6789 19.0621 40.493 18.321 43.4717 17.0847 46.6031 16.2546 49.803 15.853 51.5229 15.6321 53.255 15.5188 54.989 15.514 70.397 15.514 76.271 25.114 78.081 29.241L78.313 29.769 78.79 30.093 83.562 33.333C84.4412 33.9287 84.6711 35.1244 84.0754 36.0036 83.7179 36.5312 83.1223 36.8475 82.485 36.848Z"/><circle cx="66.504" cy="26.5" r="1.5"/></g></svg>