<svg viewBox="0 0 96 96" xmlns="http://www.w3.org/2000/svg" xmlns:xlink="http://www.w3.org/1999/xlink" id="Icons_Banana_M" overflow="hidden"><g id="Icons"><path d="M88.68 35.775C88.0729 33.3191 86.9292 31.0281 85.331 29.067L82.848 26.021C81.8136 24.7604 81.2841 23.1608 81.362 21.532 81.491 18.968 81.854 16.441 81.991 15.49L82.016 15.317C82.17 14.197 81.646 12.728 78.272 12.088 78.246 12.088 75.845 11.646 74.555 12.797 74.0395 13.2515 73.7742 13.9262 73.842 14.61 73.8097 17.8322 73.6135 21.0507 73.254 24.253 73.1671 25.2183 72.7851 26.1334 72.16 26.874L71.578 27.567C69.7559 29.7093 68.4765 32.2588 67.848 35 54.123 48.811 37.358 52.1 12.617 46.045 10.7863 45.6074 8.91603 46.6004 8.253 48.362L7.326 50.825C6.85938 52.0469 7.06776 53.4239 7.875 54.453 11.12 58.504 17.851 64.146 26.075 68.47 25.055 68.636 24.027 68.79 22.984 68.916 21.118 69.1494 19.7176 70.7355 19.717 72.616L19.717 75.247C19.7115 76.5542 20.3916 77.7687 21.509 78.447 28.6956 82.7352 36.9083 84.9995 45.277 85 45.498 85 45.718 85 45.939 85 66.839 84.656 87.515 67.017 89.323 48.023 89.8441 43.9348 89.6263 39.7862 88.68 35.775ZM9.442 53.213C9.07339 52.7364 8.98155 52.1015 9.2 51.54L10.131 49.068C10.4359 48.2511 11.3019 47.7895 12.15 47.992 28.627 52.027 49.327 54.323 67.027 38.512 62.946 52.653 48.5 63.845 29.35 67.87 20.328 63.582 12.853 57.471 9.442 53.213ZM87.335 47.8C85.612 65.891 65.866 82.668 45.909 83 37.6917 83.1202 29.6025 80.955 22.544 76.746 22.0289 76.4319 21.7168 75.8703 21.722 75.267L21.722 72.622C21.7201 71.7505 22.3674 71.0139 23.232 70.904 47.726 67.947 66.39 53.917 69.672 36 70.1779 33.3633 71.3591 30.9029 73.1 28.859L73.686 28.159C74.5751 27.1064 75.1181 25.8053 75.241 24.433 75.462 22.022 75.961 16.226 75.833 14.463 75.824 14.338 75.85 14.315 75.882 14.287 76.2909 14.062 76.7569 13.9622 77.222 14 77.4493 13.9983 77.6762 14.0174 77.9 14.057 79.715 14.4 80.056 14.888 80.035 15.043L80.011 15.208C79.871 16.185 79.498 18.778 79.364 21.438 79.264 23.56 79.9537 25.6437 81.3 27.287L83.781 30.331 83.781 30.331C85.1902 32.0589 86.1991 34.0776 86.735 36.242 87.6266 40.0275 87.8298 43.9425 87.335 47.8Z"/></g></svg>