<svg viewBox="0 0 96 96" xmlns="http://www.w3.org/2000/svg" xmlns:xlink="http://www.w3.org/1999/xlink" id="Icons_BaseballHat_M" overflow="hidden"><g id="Icons"><path d="M90.73 56.912C90.4651 56.716 90.156 56.5883 89.83 56.54L76.305 54C74.2203 53.6086 72.1615 53.0903 70.14 52.448L69.103 52.118C65.737 37.028 53.936 27.11 38.519 27.11 36.3683 27.1141 34.2218 27.2987 32.102 27.662 31.5444 25.8913 29.7013 24.864 27.902 25.321L26.202 25.761C24.3774 26.2422 23.2627 28.0832 23.682 29.923 8.93 35.674 3.71 48.228 7 62.932L8.31 68.783C8.51249 69.6983 9.32356 70.3502 10.261 70.351 10.4053 70.3506 10.5491 70.3348 10.69 70.304 12.861 69.814 16.69 68.944 21.111 67.904L23.001 67.434C29.669 65.862 37.374 64 43.2 62.427 44.794 63.007 47.042 63.827 47.235 63.893 51.356 65.347 65.208 70 74.309 70 75.5967 70.0175 76.8826 69.8954 78.144 69.636 84.144 68.295 88.764 62.964 91.144 59.713 91.8034 58.8268 91.6196 57.5739 90.7334 56.9145 90.7323 56.9137 90.7311 56.9128 90.73 56.912ZM35.152 29.274C36.288 29.165 37.414 29.11 38.519 29.11 52.453 29.11 63.507 37.964 66.932 51.726 62.0344 54.4458 56.8314 56.5747 51.432 58.068 50.2374 52.6841 48.2411 47.5101 45.51 42.719 42.4243 37.2066 37.8362 32.6841 32.28 29.678 32.272 29.678 32.271 29.662 32.28 29.661 32.516 29.625 34.311 29.354 35.152 29.274ZM26.7 27.7 28.391 27.262C28.5122 27.231 28.6369 27.2152 28.762 27.215 29.3335 27.2184 29.8517 27.551 30.093 28.069L25.593 29.236C25.5467 28.525 26.0108 27.8809 26.7 27.7ZM20.525 65.987C17.248 66.757 13.793 67.553 10.262 68.346L8.952 62.5C5.861 48.683 10.893 37.835 22.779 32.47 23.272 32.248 24.703 31.67 24.901 31.594 24.909 31.594 24.915 31.6 24.91 31.608 23.543 33.9498 22.4485 36.4403 21.648 39.031 19.18 46.787 18.8 56.1 20.525 65.987ZM43.289 60.331 42.678 60.496C37.909 61.782 31.135 63.462 22.518 65.496L22.474 65.507C20.829 55.992 21.195 47.055 23.558 39.633 24.5321 36.4698 25.9697 33.4686 27.824 30.727L29.073 30.403C35 32.8 39.958 37.269 43.781 43.725 46.4332 48.3776 48.3658 53.4049 49.513 58.636 47.46 59.231 45.381 59.796 43.313 60.336ZM77.707 67.682C76.5884 67.9096 75.4484 68.0155 74.307 67.998 65.564 67.998 51.883 63.412 47.899 62.008L46.6 61.534C53.834 59.576 61.555 57.18 67.518 53.712L68.502 54.025 69.539 54.355C71.6373 55.0223 73.7747 55.56 75.939 55.965L84.545 57.581 89.524 58.527C89.529 58.5274 89.5327 58.5317 89.5323 58.5367 89.5321 58.5386 89.5313 58.5405 89.53 58.542 86.921 62.091 82.763 66.553 77.707 67.682Z"/></g></svg>