<svg viewBox="0 0 96 96" xmlns="http://www.w3.org/2000/svg" xmlns:xlink="http://www.w3.org/1999/xlink" id="Icons_Guitar_M" overflow="hidden"><g id="Icons"><path d="M30.5 89.571C34.204 89.571 37.6567 87.9737 40.858 84.779 44.812 80.824 45.265 76.33 45.628 72.719 45.869 70.324 46.077 68.256 47.258 67.074 48.3387 66.1917 49.6267 65.5997 51 65.354 52.4248 65.061 53.7755 64.4827 54.971 63.654 56.3348 62.5885 57.1906 61.001 57.331 59.276 57.618 56.241 55.987 52.611 52.518 48.488L75.328 24.941 77.575 25.026 88.308 15.67 88.174 15.086C87.6331 13.3662 86.6299 11.8282 85.274 10.64 84.0769 9.27903 82.4831 8.32773 80.717 7.92L80.185 7.85 70.868 18.538 70.953 20.784 47.475 43.44C43.452 40.047 39.908 38.44 36.933 38.658 35.1588 38.79 33.5155 39.6411 32.384 41.014 31.4936 42.2216 30.8841 43.6128 30.6 45.086 30.3712 46.4317 29.7987 47.6955 28.938 48.755 27.757 49.937 25.689 50.145 23.295 50.386 19.685 50.749 15.195 51.202 11.244 55.15 3.769 62.483 4.908 71.27 14.644 81.288 20.326 86.808 25.623 89.571 30.5 89.571ZM80.921 10.044C82.0386 10.5019 83.0454 11.1933 83.874 12.072 84.7778 12.8986 85.5098 13.8953 86.028 15.005L76.858 23 75.121 22.935 72.954 20.767 72.9 19.255ZM71.957 22.6 73.409 24.053 44.7 53.68C44.4253 53.1572 44.0703 52.6808 43.648 52.268 43.2361 51.8662 42.7699 51.5242 42.263 51.252ZM43.435 56.415C43.4472 57.5128 43.0117 58.5682 42.229 59.338 40.734 60.8993 38.2564 60.9531 36.6951 59.4581 36.6542 59.4189 36.6142 59.3789 36.575 59.338 35.0131 57.8452 34.9572 55.3689 36.45 53.807 36.4907 53.7644 36.5324 53.7227 36.575 53.682 38.07 52.1207 40.5476 52.0669 42.1089 53.5619 42.1498 53.6011 42.1898 53.6411 42.229 53.682L42.247 53.7 42.266 53.717C43.0065 54.4198 43.4286 55.3941 43.435 56.415ZM12.653 56.571C16.104 53.121 20.032 52.725 23.497 52.376 26.157 52.108 28.669 51.855 30.354 50.169 31.4785 48.8732 32.2312 47.2971 32.532 45.608 32.7531 44.4228 33.2231 43.2981 33.911 42.308 34.6955 41.3408 35.8458 40.742 37.088 40.654 39.449 40.476 42.533 41.927 46.027 44.838L40.111 50.547C39.8763 50.5092 39.6395 50.4859 39.402 50.477 36.0784 50.4715 33.3796 53.1615 33.3741 56.4851 33.3687 59.8088 36.0586 62.5075 39.3823 62.513 42.7059 62.5184 45.4047 59.8285 45.4101 56.5049 45.4105 56.2878 45.3991 56.0709 45.376 55.855L51.12 49.926C54.872 54.432 55.499 57.386 55.338 59.085 55.244 60.266 54.6602 61.3539 53.728 62.085 52.7364 62.7395 51.6278 63.1965 50.463 63.431 48.7511 63.7502 47.1555 64.5208 45.841 65.663 44.155 67.349 43.903 69.863 43.635 72.522 43.286 75.988 42.891 79.917 39.441 83.368 32.877 89.933 25.225 88.785 16.063 79.876 7.141 70.7 6.023 63.076 12.653 56.571Z"/><path d="M74.8 9.1C74.8 9.92843 75.4716 10.6 76.3 10.6 77.1284 10.6 77.8 9.92843 77.8 9.1 77.8 8.27157 77.1284 7.6 76.3 7.6 75.4716 7.6 74.8 8.27157 74.8 9.1Z"/><path d="M88.4 19.7C88.4 18.8716 87.7284 18.2 86.9 18.2 86.0716 18.2 85.4 18.8716 85.4 19.7 85.4 20.5284 86.0716 21.2 86.9 21.2 87.7284 21.2 88.4 20.5284 88.4 19.7Z"/><path d="M71.2 12.7C71.2 13.5284 71.8716 14.2 72.7 14.2 73.5284 14.2 74.2 13.5284 74.2 12.7 74.2 11.8716 73.5284 11.2 72.7 11.2 71.8716 11.2 71.2 11.8716 71.2 12.7Z"/><circle cx="83.299" cy="23.304" r="1.5"/><rect x="27.748" y="60.045" width="2" height="14.042" transform="matrix(0.707156 -0.707057 0.707057 0.707156 -39.001 39.966)"/></g></svg>