<svg viewBox="0 0 96 96" xmlns="http://www.w3.org/2000/svg" xmlns:xlink="http://www.w3.org/1999/xlink" id="Icons_Beetle_M" overflow="hidden"><g id="Icons"><path d="M18.478 57.06C18.3817 57.6034 18.7437 58.1221 19.287 58.219 19.3451 58.2289 19.404 58.2339 19.463 58.234 19.9472 58.2332 20.3613 57.8857 20.446 57.409 21.446 51.781 24.226 49.336 28.913 49.921L29.92 63.008C30.0299 64.3773 30.3156 65.7267 30.77 67.023 28.1077 67.1456 26.0094 69.3349 26 72L26 82 21 82C20.4477 82 20 82.4477 20 83 20 83.5523 20.4477 84 21 84L27 84C27.5523 84 28 83.5523 28 83L28 72C28 70.3431 29.3431 69 31 69L31.6 69C34.3568 74.4946 39.9677 77.9736 46.115 78L49.895 78C56.0387 77.9698 61.6448 74.4914 64.4 69L65 69C66.6569 69 68 70.3431 68 72L68 83C68 83.5523 68.4477 84 69 84L75 84C75.5523 84 76 83.5523 76 83 76 82.4477 75.5523 82 75 82L70 82 70 72C69.9905 69.3345 67.8917 67.1451 65.229 67.023 65.6834 65.7267 65.969 64.3773 66.079 63.008L67.086 49.921C71.786 49.335 74.554 51.781 75.553 57.409 75.6377 57.8857 76.0518 58.2332 76.536 58.234 76.595 58.2339 76.6539 58.2289 76.712 58.219 77.2557 58.1226 77.6183 57.6037 77.522 57.06 76.376 50.598 72.744 47.377 67.242 47.889L67.393 45.938C67.5297 44.0798 67.0392 42.2295 66 40.683L66 36C66 35.664 65.985 35.33 65.956 35L66 35C68.7601 34.9967 70.9967 32.7601 71 30L71 20 76 20C76.5523 20 77 19.5523 77 19 77 18.4477 76.5523 18 76 18L70 18C69.4477 18 69 18.4477 69 19L69 30C69 31.6569 67.6569 33 66 33L65.6 33C64.4575 28.8137 61.0656 25.6207 56.818 24.733 56.3365 22.4784 54.958 20.517 53 19.3L53 18.312C53.0022 14.8285 55.8245 12.0044 59.308 12L63 12C63.5523 12 64 11.5523 64 11 64 10.4477 63.5523 10 63 10L59.308 10C54.7217 10.0061 51.0055 13.7227 51 18.309L51 18.383C50.1906 18.1307 49.3478 18.0016 48.5 18L47.5 18C46.6522 18.0016 45.8094 18.1307 45 18.383L45 18.309C44.9945 13.722 41.277 10.005 36.69 10L33 10C32.4477 10 32 10.4477 32 11 32 11.5523 32.4477 12 33 12L36.69 12C40.1732 12.0033 42.9961 14.8258 43 18.309L43 19.3C41.042 20.518 39.6643 22.4807 39.184 24.736 34.9364 25.6225 31.5438 28.8144 30.4 33L30 33C28.3431 33 27 31.6569 27 30L27 19C27 18.4477 26.5523 18 26 18L20 18C19.4477 18 19 18.4477 19 19 19 19.5523 19.4477 20 20 20L25 20 25 30C25.0033 32.7601 27.2399 34.9967 30 35L30.044 35C30.015 35.33 30 35.664 30 36L30 40.683C28.9608 42.2295 28.4703 44.0798 28.607 45.938L28.758 47.889C23.262 47.38 19.623 50.6 18.478 57.06ZM31.914 62.854 30.6 45.784C30.3327 42.3149 32.9283 39.2859 36.3974 39.0186 36.559 39.0062 36.7209 39 36.883 39L47 39 47 76 46.11 76C38.6819 75.9702 32.5134 70.258 31.914 62.854ZM65.4 45.784 64.087 62.854C63.4875 70.2588 57.3179 75.9712 49.889 76L49 76 49 39 59.115 39C62.5944 38.998 65.4166 41.817 65.4186 45.2964 65.4187 45.4591 65.4125 45.6218 65.4 45.784ZM47.5 20 48.5 20C51.3576 20.0005 53.8797 21.8672 54.715 24.6L41.284 24.6C42.1194 21.8669 44.642 20 47.5 20ZM40.14 26.6 55.86 26.6C60.5258 27.287 63.9869 31.2839 64 36L64 38.6C62.5812 37.5647 60.8714 37.0046 59.115 37L36.883 37C35.1273 37.005 33.4182 37.5651 32 38.6L32 36C32.013 31.2843 35.4736 27.2874 40.139 26.6Z"/></g></svg>