<svg viewBox="0 0 96 96" xmlns="http://www.w3.org/2000/svg" xmlns:xlink="http://www.w3.org/1999/xlink" id="Icons_AlarmRinging_M" overflow="hidden"><g id="Icons"><path d="M16.5 58.5C12.9 54.9 12.9 49.1 16.5 45.5L15 44.1C10.6 48.5 10.6 55.6 15 59.9L16.5 58.5Z"/><path d="M9.4 38.5C1.9 46 1.9 58.1 9.4 65.5L10.8 64.1C4.1 57.4 4.1 46.6 10.8 39.9L9.4 38.5Z"/><path d="M79.5 45.5C83.1 49.1 83.1 54.9 79.5 58.5L80.9 59.9C85.3 55.5 85.3 48.4 80.9 44.1L79.5 45.5Z"/><path d="M86.6 38.5 85.2 39.9C91.9 46.6 91.9 57.4 85.2 64.1L86.6 65.5C94 58.1 94 45.9 86.6 38.5Z"/><path d="M48 35C47.4 35 47 35.4 47 36L47 51 32 51C31.4 51 31 51.4 31 52 31 52.6 31.4 53 32 53L48 53C48.6 53 49 52.6 49 52L49 36C49 35.4 48.5 35 48 35Z"/><path d="M15.7 30.2 20.9 35.4 34.9 21.4 29.7 16.2C28.2 14.6 25.7 14.6 24.1 16.1L24.1 16.1 24 16.2 15.7 24.5C14.1 26 14.1 28.5 15.6 30.1L15.6 30.1 15.7 30.2ZM25.4 17.6 25.5 17.5C26.3 16.8 27.5 16.8 28.2 17.6L28.2 17.6 32 21.4 20.9 32.6 17.1 28.8 17 28.7C16.3 27.9 16.3 26.7 17.1 25.9 17.3 25.7 25.4 17.6 25.4 17.6Z"/><path d="M80.3 30.2 80.4 30.1C81.9 28.5 81.9 26 80.3 24.5L80.3 24.5 72 16.2 71.9 16.1C70.3 14.6 67.8 14.6 66.3 16.2L66.3 16.2 61.1 21.4 75.1 35.4 80.3 30.2ZM67.7 17.6 67.7 17.6C68.5 16.8 69.7 16.8 70.5 17.5L70.6 17.6 78.9 25.9 78.9 25.9C79.7 26.6 79.7 27.9 79 28.6L78.9 28.7 75.1 32.5 63.9 21.4 67.7 17.6Z"/><path d="M49 26 49 20 54 20C54.6 20 55 19.6 55 19 55 18.4 54.6 18 54 18L42 18C41.4 18 41 18.4 41 19 41 19.6 41.4 20 42 20L47 20 47 26C32.7 26.5 21.5 38.6 22 53 22.2 59.2 24.7 65.2 29 69.8L24.1 80.6C23.9 81.1 24.1 81.7 24.6 81.9L24.6 81.9C24.7 82 24.9 82 25 82 25.4 82 25.7 81.8 25.9 81.4L30.5 71.2C40.4 80.2 55.5 80.2 65.4 71.2L70 81.4C70.2 81.8 70.5 82 70.9 82 71 82 71.2 82 71.3 81.9 71.8 81.7 72 81.1 71.8 80.6L71.8 80.6 67 69.8C76.8 59.3 76.3 42.9 65.8 33.1 61.2 28.7 55.2 26.3 49 26ZM48 76C34.7 76 24 65.3 24 52 24 38.7 34.7 28 48 28 61.3 28 72 38.7 72 52 72 65.2 61.2 76 48 76Z"/></g></svg>