<svg viewBox="0 0 96 96" xmlns="http://www.w3.org/2000/svg" xmlns:xlink="http://www.w3.org/1999/xlink" id="Icons_Elephant_M" overflow="hidden"><g id="Icons"><path d="M93.743 64.141C93.4522 63.3423 92.8378 62.7035 92.051 62.382 90.5844 61.8317 88.9381 62.4654 88.219 63.857L87.569 65.083C87.4008 65.3892 87.1134 65.6122 86.775 65.699 86.4319 65.7875 86.0675 65.7304 85.768 65.541 85.2913 65.1949 85.0868 64.5844 85.259 64.021L85.404 63.467 90.683 49.08C92.61 43.329 92.236 38.488 89.423 32.88L83.89 22.34C82.7974 20.144 80.5528 18.7588 78.1 18.767L72.77 18.767 70.558 17.156C70.2068 16.8909 69.8213 16.6746 69.412 16.513 66.5169 15.4239 63.2528 16.1146 61.047 18.283 60.49 18.831 59.97 19.315 59.658 19.602L58.325 19.537C57.6525 19.509 56.9835 19.4247 56.325 19.285L50.125 17.513C49.0518 17.2061 47.9412 17.0503 46.825 17.05L27.643 17.05C23.7629 17.0662 19.9348 17.9436 16.435 19.619L16.249 19.708C16.092 19.785 15.935 19.863 15.781 19.943 15.1189 20.2783 14.478 20.654 13.862 21.068 13.662 21.202 13.467 21.343 13.272 21.482 13.197 21.536 13.12 21.587 13.046 21.642 11.7214 22.5906 10.5578 23.746 9.6 25.064 9.589 25.08 9.588 25.098 9.579 25.113 7.18509 28.2526 5.8855 32.0899 5.879 36.038L5.879 55.529C5.9693 57.3417 5.07024 59.061 3.53 60.021 3.03998 60.2757 2.84925 60.8795 3.10399 61.3695 3.35874 61.8595 3.96249 62.0503 4.45251 61.7955 4.46927 61.7868 4.48577 61.7776 4.502 61.768 6.58931 60.5553 7.87523 58.325 7.879 55.911L7.879 36.038C7.91652 29.7388 11.594 24.0298 17.314 21.391 20.5423 19.8586 24.0695 19.0592 27.643 19.05L46.818 19.05C47.7482 19.05 48.6738 19.18 49.568 19.436L55.768 21.208C56.5931 21.4075 57.4373 21.5174 58.286 21.536L58.669 21.555 55.537 28.68C54.9671 29.9148 54.8651 31.3146 55.25 32.619 55.7324 34.1657 56.8912 35.4096 58.4 36L68.15 39.864C69.7503 40.496 71.5564 40.3243 73.009 39.402L74.457 38.481C74.9063 38.1598 75.0101 37.5352 74.6889 37.0859 74.3902 36.6681 73.8236 36.5445 73.378 36.8L71.931 37.722C71.02 38.3013 69.8866 38.4087 68.883 38.011L59.227 34.185C58.5405 33.9294 57.9525 33.4631 57.547 32.853 56.9279 31.9009 56.8316 30.7006 57.291 29.662L61.108 20.988C61.438 20.688 61.925 20.228 62.45 19.712 64.0968 18.0897 66.5354 17.5708 68.7 18.382 68.9423 18.4817 69.1703 18.6132 69.378 18.773L71.853 20.573C72.0239 20.6972 72.2297 20.764 72.441 20.764L78.1 20.764C79.8012 20.7599 81.3565 21.7243 82.109 23.25L87.643 33.788C90.1401 38.2633 90.5626 43.6048 88.8 48.417L83.5 62.863 83.328 63.502C82.9247 64.9159 83.4848 66.4281 84.712 67.238 85.4755 67.7218 86.4056 67.8666 87.28 67.638 88.1536 67.4084 88.8944 66.8298 89.329 66.038L89.987 64.797C90.2233 64.3113 90.7804 64.0727 91.295 64.237 91.5596 64.3427 91.7666 64.5562 91.864 64.824 91.9614 65.0894 91.9407 65.3838 91.807 65.633L91.087 66.989C90.1571 68.6833 88.3797 69.7382 86.447 69.743 85.773 69.7428 85.1053 69.6121 84.481 69.358 82.3144 68.4647 80.9905 66.2558 81.224 63.924L82.135 50.346C82.2318 47.6508 80.1299 45.3852 77.435 45.28L75.46 45.248C74.1049 45.389 72.75 44.9793 71.7 44.111L70.6 43.111C70.5217 43.0397 70.4326 42.9813 70.336 42.938 69.6728 42.6391 68.9124 42.6438 68.253 42.951 67.5743 43.2705 67.0727 43.875 66.884 44.601L66.802 44.984C66.3594 47.0545 65.1141 48.865 63.339 50.019L59.885 52.264C58.767 52.832 57.659 53.364 56.585 53.859 56.2185 54.0244 55.9918 54.3986 56.015 54.8L56.015 74.025 56.06 74.325 57 77.327C57.0017 77.3323 56.9987 77.3379 56.9935 77.3396 56.9927 77.3398 56.9918 77.34 56.991 77.34L50.067 77.34C50.0615 77.3397 50.0573 77.335 50.0576 77.3295 50.0576 77.3286 50.0578 77.3278 50.058 77.327L50.976 74.314 51.02 74.023 51.02 57.656C51.0189 57.5111 50.9897 57.3678 50.934 57.234 50.7616 56.7099 50.1974 56.4244 49.673 56.596 41.448 59.29 33.705 59.688 23.782 57.927 22.9361 57.7762 22.101 57.5701 21.282 57.31L21.025 57.276C20.4727 57.276 20.025 57.7237 20.025 58.276L20.025 74.025 20.07 74.32 21 77.327C21.0017 77.3323 20.9987 77.3379 20.9935 77.3396 20.9927 77.3398 20.9918 77.34 20.991 77.34L14.067 77.34C14.0615 77.3403 14.0568 77.336 14.0565 77.3305 14.0565 77.3293 14.0566 77.3281 14.057 77.327L14.976 74.315 15.02 74.022 15.02 54.3C15.02 54.287 15.02 54.278 15.02 54.265 15.02 54.252 15.02 54.24 15.02 54.227 15.0154 54.167 15.0009 54.1082 14.977 54.053 14.9355 53.8649 14.8387 53.6936 14.699 53.561 14.0042 52.9317 13.3652 52.2434 12.789 51.504 12.1388 50.6684 11.549 49.7875 11.024 48.868 10.7498 48.3883 10.1387 48.2218 9.659 48.496 9.17934 48.7702 9.01279 49.3813 9.287 49.861 9.85603 50.863 10.4953 51.8234 11.2 52.735 11.7561 53.4407 12.3634 54.1045 13.017 54.721L13.017 73.874 12.137 76.757C11.815 77.8136 12.4105 78.9312 13.4671 79.2531 13.6561 79.3107 13.8525 79.34 14.05 79.34L21 79.34C22.1046 79.34 23 78.4445 22.9999 77.3399 22.9999 77.1389 22.9696 76.939 22.91 76.747L22.016 73.872 22.016 59.6C22.482 59.715 22.954 59.816 23.428 59.9 27.2122 60.6037 31.0511 60.9718 34.9 61 39.6856 61.0049 44.445 60.2933 49.02 58.889L49.02 73.875 48.141 76.757C47.819 77.8136 48.4145 78.9312 49.4711 79.2531 49.6601 79.3107 49.8565 79.34 50.054 79.34L57 79.34C58.1046 79.34 59 78.4445 58.9999 77.3399 58.9999 77.1389 58.9696 76.939 58.91 76.747L58.016 73.872 58.016 55.4C58.941 54.967 59.885 54.511 60.84 54.025L60.931 53.973 63.016 52.617 63.016 74.025 63.061 74.32 64 77.327C64.0017 77.3323 63.9987 77.3379 63.9935 77.3396 63.9927 77.3398 63.9918 77.34 63.991 77.34L61.054 77.34C60.5017 77.34 60.054 77.7877 60.054 78.34 60.054 78.8923 60.5017 79.34 61.054 79.34L64 79.34C65.1046 79.34 66 78.4445 65.9999 77.3399 65.9999 77.1389 65.9696 76.939 65.91 76.747L65.016 73.872 65.016 51.27C66.9315 49.8296 68.2607 47.7444 68.758 45.4L68.824 45.082C68.8633 44.9406 68.9628 44.8236 69.096 44.762 69.1919 44.719 69.2984 44.7054 69.402 44.723L70.349 45.589C71.7607 46.7931 73.5921 47.3886 75.442 47.245L75.442 47.245 77.374 47.276C78.948 47.3432 80.1762 48.6622 80.131 50.237L79.23 63.756C78.9249 66.9605 80.7522 69.9874 83.73 71.21 84.5926 71.5604 85.5149 71.7404 86.446 71.74 89.1124 71.7343 91.5646 70.2783 92.846 67.94L93.572 66.57C93.9698 65.8209 94.0319 64.9384 93.743 64.141Z"/><path d="M29.02 73.872 29.02 63.026C29.02 62.4737 28.5723 62.026 28.02 62.026 27.4677 62.026 27.02 62.4737 27.02 63.026L27.02 74.026 27.065 74.321 28 77.327C28.0017 77.3323 27.9987 77.3379 27.9935 77.3396 27.9927 77.3398 27.9918 77.34 27.991 77.34L25.053 77.34C24.5007 77.34 24.053 77.7877 24.053 78.34 24.053 78.8923 24.5007 79.34 25.053 79.34L28 79.34C29.1046 79.34 30 78.4445 29.9999 77.3399 29.9999 77.1389 29.9696 76.939 29.91 76.747Z"/><circle cx="80.004" cy="33" r="2"/></g></svg>