<svg viewBox="0 0 96 96" xmlns="http://www.w3.org/2000/svg" xmlns:xlink="http://www.w3.org/1999/xlink" id="Icons_Butterfly_M" overflow="hidden"><path d="M82.267 30 82.253 30C81.704 30 81.247 30.662 81.23 31.489 81.213 32.316 81.649 33.008 82.205 33.019L82.219 33.019C82.769 33.019 83.225 32.357 83.243 31.531 83.261 30.705 82.823 30.012 82.267 30Z"/><path d="M81.986 35.249C81.9229 35.2311 81.8576 35.2221 81.792 35.222 81.309 35.222 80.802 35.711 80.592 36.416 80.357 37.216 80.6 37.991 81.133 38.147 81.196 38.1657 81.2613 38.1751 81.327 38.175 81.81 38.175 82.317 37.686 82.527 36.981 82.762 36.181 82.52 35.406 81.986 35.249Z"/><path d="M78.832 42.1C78.2851 42.1658 77.8091 42.5047 77.568 43 77.155 43.724 77.211 44.535 77.693 44.811 77.803 44.8724 77.927 44.9041 78.053 44.903 78.5997 44.8375 79.0756 44.4984 79.316 44.003 79.73 43.279 79.674 42.468 79.191 42.193 79.0817 42.1307 78.9578 42.0986 78.832 42.1Z"/><path d="M73.775 49C73.2515 49.0528 72.7835 49.3493 72.512 49.8 72.042 50.488 72.033 51.3 72.492 51.614 72.6162 51.6968 72.7627 51.7397 72.912 51.737 73.4355 51.6842 73.9035 51.3877 74.175 50.937 74.645 50.248 74.654 49.437 74.194 49.123 74.0702 49.0401 73.924 48.9972 73.775 49Z"/><path d="M13.8 33.019C14.356 33.008 14.792 32.319 14.775 31.489 14.758 30.659 14.3 30 13.747 30L13.733 30C13.177 30.012 12.74 30.7 12.758 31.531 12.776 32.362 13.231 33.019 13.781 33.019Z"/><path d="M14.208 35.222C14.1424 35.2221 14.0771 35.2311 14.014 35.249 13.48 35.406 13.238 36.181 13.472 36.981 13.679 37.681 14.186 38.175 14.672 38.175 14.7377 38.1751 14.803 38.1657 14.866 38.147 15.399 37.991 15.642 37.216 15.407 36.416 15.2 35.711 14.691 35.222 14.208 35.222Z"/><path d="M17.168 42.1C17.0422 42.0986 16.9183 42.1307 16.809 42.193 16.326 42.468 16.27 43.279 16.684 44.003 16.9244 44.4984 17.4003 44.8375 17.947 44.903 18.073 44.9041 18.197 44.8724 18.307 44.811 18.789 44.535 18.845 43.724 18.432 43 18.1909 42.5047 17.7149 42.1658 17.168 42.1Z"/><path d="M22.226 49C22.0766 48.9974 21.93 49.0407 21.806 49.124 21.346 49.437 21.355 50.249 21.825 50.938 22.0965 51.3887 22.5645 51.6852 23.088 51.738 23.2373 51.7407 23.3838 51.6978 23.508 51.615 23.967 51.302 23.958 50.489 23.488 49.801 23.217 49.3501 22.7493 49.0533 22.226 49Z"/><path d="M88.505 30.539C88.292 27.527 85.805 26.302 82.146 26.302 73.746 26.302 59.222 32.771 52.051 38.916 51.7095 37.9194 51.0128 37.0835 50.094 36.568 50.429 33.368 51.777 26.637 55.707 22.707 56.0907 22.3097 56.0797 21.6767 55.6824 21.293 55.2949 20.9187 54.6805 20.9187 54.293 21.293 50.068 25.518 48.567 32.376 48.145 36.015 48.096 36.015 48.045 36 48 36 47.955 36 47.9 36.013 47.855 36.015 47.433 32.376 45.932 25.515 41.707 21.293 41.3097 20.9093 40.6767 20.9203 40.293 21.3176 39.9187 21.7051 39.9187 22.3195 40.293 22.707 44.223 26.637 45.571 33.368 45.906 36.568 44.9872 37.0835 44.2905 37.9194 43.949 38.916 36.778 32.771 22.256 26.3 13.856 26.3 10.199 26.3 7.708 27.525 7.495 30.537 7.3564 31.9383 8.00407 33.3014 9.178 34.079 6.992 38.869 12.1 41.526 12.1 41.526 11.3998 44.9142 13.4522 48.2636 16.789 49.178 16.876 52.458 19.477 55.878 23.189 56 23.7202 55.9947 24.2491 55.9303 24.766 55.808 24.3295 57.5666 24.3141 59.4033 24.721 61.169 25.076 62.769 25.952 63.115 26.642 63.115 26.9652 63.1118 27.2845 63.0438 27.581 62.915 27.581 62.915 28.108 65.059 29.635 65.059 29.9418 65.0528 30.2436 64.9794 30.519 64.844 30.9216 65.9097 31.5852 66.8573 32.449 67.6 33.913 68.985 32.631 74.591 35.207 74.955 35.284 74.9799 35.3641 74.9937 35.445 74.996 35.637 74.996 35.823 74.888 35.479 74.319 34.971 73.48 34.653 68.185 38.495 68.185 38.9049 68.1888 39.3129 68.2401 39.711 68.338 39.8803 68.4171 40.0652 68.4571 40.252 68.455 40.789 68.455 41.611 68.132 42.185 66.409 42.185 66.409 43.585 63.909 45.861 63.651 46.542 63.583 46.633 63.015 46.429 62.107L46.59 60.44C47.3839 61.1813 48.6161 61.1813 49.41 60.44L49.571 62.107C49.371 63.015 49.458 63.583 50.139 63.651 52.419 63.912 53.815 66.409 53.815 66.409 54.389 68.132 55.215 68.455 55.748 68.455 55.9348 68.4571 56.1197 68.4171 56.289 68.338 56.6871 68.2402 57.0951 68.1888 57.505 68.185 61.347 68.185 61.029 73.485 60.521 74.319 60.177 74.888 60.363 74.996 60.555 74.996 60.6359 74.9937 60.716 74.9799 60.793 74.955 63.369 74.591 62.087 68.985 63.551 67.6 64.4147 66.8566 65.078 65.9083 65.48 64.842 65.7554 64.9774 66.0572 65.0508 66.364 65.057 67.891 65.057 68.418 62.913 68.418 62.913 68.7145 63.0418 69.0338 63.1098 69.357 63.113 70.047 63.113 70.923 62.768 71.278 61.167 71.6849 59.4013 71.6695 57.5646 71.233 55.806 71.7498 55.929 72.2788 55.9941 72.81 56 76.526 55.88 79.127 52.458 79.21 49.178 82.5472 48.264 84.6001 44.9145 83.9 41.526 83.9 41.526 89 38.869 86.819 34.081 87.9941 33.3041 88.643 31.9409 88.505 30.539ZM24.315 53.859C23.9544 53.945 23.5856 53.9923 23.215 54 20.637 53.892 18.844 51.4 18.783 49.125 18.7597 48.2438 18.1622 47.4818 17.312 47.249 14.996 46.6088 13.5717 44.2841 14.053 41.93 14.2269 41.0598 13.8117 40.1781 13.03 39.758 12.46 39.451 9.687 37.779 10.996 34.911 11.4054 34.0148 11.1012 32.954 10.279 32.411 9.72105 32.0454 9.41272 31.3998 9.479 30.736L9.484 30.679C9.53 30.028 9.653 28.301 13.85 28.301 21.655 28.301 36.532 34.736 43.372 41.063L43.753 41.457C43.8241 42.2198 43.9471 42.9769 44.121 43.723 41.155 44.465 32.489 46.942 27.677 51.468 26.7518 52.5092 25.6022 53.3268 24.315 53.859ZM44.438 61.919 44.438 61.942C42.7504 62.6253 41.3416 63.8563 40.438 65.437 40.3768 65.5464 40.3259 65.6612 40.286 65.78 40.2219 65.9827 40.1389 66.1789 40.038 66.366 39.5311 66.2519 39.0135 66.1926 38.494 66.189 37.0986 66.153 35.7543 66.7153 34.8 67.734 34.6062 67.1351 34.2703 66.5919 33.821 66.151 33.798 66.13 33.775 66.109 33.751 66.089 33.1419 65.5632 32.6737 64.8936 32.389 64.141 31.9997 63.1073 30.8461 62.5849 29.8124 62.9743 29.7972 62.98 29.7821 62.9859 29.767 62.992 29.6608 62.8194 29.578 62.6334 29.521 62.439 29.3973 61.8299 28.9938 61.3148 28.432 61.049 28.1751 60.9342 27.8973 60.8736 27.616 60.871 27.3227 60.8712 27.034 60.9433 26.775 61.081 26.7319 60.9714 26.6985 60.8583 26.675 60.743 26.3327 59.2805 26.343 57.7577 26.705 56.3L26.805 55.926C29.02 50.696 38.684 47.126 44.391 45.711 44.1241 47.2932 43.9933 48.8954 44 50.5 43.9711 52.8113 44.2673 55.1152 44.88 57.344ZM48 59C47.4 58.891 46 55.868 46 50.5 46 49.62 46.042 48.814 46.108 48.065 46.9072 49.1099 48.4022 49.3091 49.4472 48.5098 49.6145 48.3819 49.764 48.2323 49.892 48.065 49.958 48.814 50 49.62 50 50.5 50 55.868 48.6 58.891 48 59ZM48 47C47.262 47 45.7 43.83 45.7 40.3 45.7 39.0297 46.7297 38 48 38 49.2703 38 50.3 39.0297 50.3 40.3 50.3 43.83 48.738 47 48 47ZM69.325 60.736C69.3014 60.8536 69.2679 60.969 69.225 61.081 68.966 60.9433 68.6773 60.8712 68.384 60.871 68.1027 60.8736 67.8249 60.9342 67.568 61.049 67.0062 61.3148 66.6027 61.83 66.479 62.439 66.4209 62.6331 66.3383 62.8189 66.233 62.992 65.2091 62.5776 64.0431 63.0717 63.6287 64.0956 63.6226 64.1106 63.6167 64.1258 63.611 64.141 63.3263 64.8936 62.8581 65.5632 62.249 66.089 62.225 66.109 62.202 66.13 62.179 66.151 61.7298 66.5924 61.3939 67.1358 61.2 67.735 60.2445 66.7142 58.8977 66.1514 57.5 66.189 56.9808 66.1926 56.4635 66.252 55.957 66.366 55.8561 66.1789 55.7731 65.9827 55.709 65.78 55.6691 65.6612 55.6182 65.5464 55.557 65.437 54.6524 63.8583 53.2437 62.6293 51.557 61.947L51.557 61.919 51.115 57.344C51.7294 55.1154 52.0273 52.8115 52 50.5 52.0037 48.8952 51.8699 47.293 51.6 45.711 57.311 47.122 66.975 50.7 69.19 55.926L69.29 56.3C69.6536 57.7549 69.6656 59.2755 69.325 60.736ZM68.325 51.458C63.513 46.932 54.836 44.466 51.87 43.724 52.0439 42.9779 52.1669 42.2208 52.238 41.458L52.619 41.064C59.461 34.737 74.34 28.3 82.146 28.3 86.346 28.3 86.464 30.027 86.51 30.678L86.51 30.735C86.5763 31.3988 86.268 32.0444 85.71 32.41 84.8878 32.953 84.5836 34.0138 84.993 34.91 86.302 37.778 83.529 39.45 82.971 39.751 82.1779 40.164 81.7553 41.0533 81.936 41.929 82.4173 44.2831 80.993 46.6078 78.677 47.248 77.8268 47.4808 77.2293 48.2428 77.206 49.124 77.154 51.4 75.361 53.892 72.783 54 72.4124 53.9923 72.0436 53.945 71.683 53.859 70.3963 53.3248 69.2487 52.5036 68.328 51.458Z"/></svg>