<svg viewBox="0 0 96 96" xmlns="http://www.w3.org/2000/svg" xmlns:xlink="http://www.w3.org/1999/xlink" id="Icons_Saw_M" overflow="hidden"><g id="Icons"><path d="M43.407 79.271 49.8 77.1 48.6 71.8 54.7 70.4 53.3 64.4 59.4 63 58 57 64 55.6 62.7 49.5 68 48.3 66.8 43.1 72.8 41.7 71.5 35.7 77.5 34.3 76.1 28.2 82.2 26.9 80.8 20.8 87 20.3 85.4 14.1 75.4 4 10.3 69C8.59993 70.717 8.59993 73.483 10.3 75.2L25.8 90.7C27.517 92.4001 30.283 92.4001 32 90.7ZM30.586 89.286C29.6498 90.2048 28.1502 90.2048 27.214 89.286L11.714 73.786C10.7952 72.8498 10.7952 71.3502 11.714 70.414L26.946 55.183 37.753 82.119ZM78.851 21.247 79.796 25.367 75.683 26.244 73.696 26.667 74.151 28.647 75.105 32.805 71.046 33.752 69.129 34.2 69.545 36.123 70.429 40.2 66.346 41.152 64.403 41.606 64.851 43.55 65.6 46.793 62.258 47.549 60.332 47.985 60.744 49.917 61.635 54.098 57.546 55.052 55.598 55.507 56.052 57.454 57 61.5 52.857 62.451 50.9 62.9 51.356 64.854 52.3 68.9 48.157 69.851 46.213 70.297 46.653 72.242 47.453 75.785 42.765 77.377 42.321 77.528 41.991 77.86 39.291 80.573 28.508 53.62 75.391 6.834 83.6 15.123 84.47 18.498 80.64 18.807 78.334 18.993Z"/><path d="M25.664 61.521 15.086 72.1 28.9 85.914 33.574 81.24ZM17.914 72.1 24.936 65.078 31.226 80.76 28.9 83.086Z"/></g></svg>