<svg viewBox="0 0 96 96" xmlns="http://www.w3.org/2000/svg" xmlns:xlink="http://www.w3.org/1999/xlink" id="Icons_Basketball_M" overflow="hidden"><g id="Icons"><path d="M74.8 21.1C60 6.3 35.9 6.3 21.1 21.1 6.3 36 6.3 60 21.1 74.9 36 89.7 60 89.6 74.8 74.8 89.6 59.9 89.6 36 74.8 21.1 74.8 21.1 74.8 21.1 74.8 21.1ZM46 84C37.5 83.6 29.4 80.1 23.2 74.2L48 49.4 56.5 57.9C49.8 64.9 46 74.3 46 84L46 84ZM57.9 59.3 72.7 74.1C66.1 80.5 57.2 84 48 84 48 74.8 51.6 66 57.9 59.3ZM59.3 57.9C65.9 51.6 74.8 48 84 48.1 84 57.3 80.5 66.1 74.2 72.8L59.3 57.9ZM83.9 46.1C74.2 46.1 64.9 49.9 57.9 56.5L49.4 48 74.1 23.3C80 29.5 83.5 37.6 83.9 46.1ZM35.9 37.4C29.4 43.6 20.9 47.1 12 47.2 12.2 38.3 15.7 29.7 21.8 23.3L35.9 37.4ZM23.2 21.9C29.7 15.7 38.2 12.2 47.1 12.1 47 21 43.5 29.5 37.3 36L23.2 21.9ZM49.2 12C58 12.3 66.4 15.8 72.7 21.8L48 46.6 38.8 37.4C45.3 30.5 49 21.5 49.2 12ZM12 49.2C21.5 49 30.5 45.3 37.3 38.8L46.5 48 21.8 72.7C15.8 66.4 12.3 58 12 49.2Z"/></g></svg>