<svg viewBox="0 0 96 96" xmlns="http://www.w3.org/2000/svg" xmlns:xlink="http://www.w3.org/1999/xlink" id="Icons_Balloons_M" overflow="hidden"><g id="Icons"><path d="M69.861 16.944C65.8029 15.9742 61.5387 16.3606 57.721 18.044 55.9875 14.2318 53.1888 11.0021 49.662 8.744 45.3282 6.05323 40.0963 5.21317 35.138 6.412 24.739 8.859 18.8 18.537 20.263 29.946 12.928 34.478 9.4 43.6 11.691 53.733 14.4 65.6 24.48 75.9 33.69 76.492L33.27 82.043C33.2286 82.5937 33.6414 83.0738 34.1922 83.1152 34.2181 83.1171 34.244 83.1181 34.27 83.118 34.3457 83.1181 34.4212 83.1097 34.495 83.093L37.077 82.493C37.2841 84.7919 38.0034 87.0153 39.182 89L41.506 89C40.0976 86.9327 39.2515 84.5344 39.051 82.041L42.292 81.292C42.8302 81.168 43.166 80.6312 43.042 80.093 43.0185 79.9908 42.979 79.8929 42.925 79.803L40.212 75.281C45.466 72.743 48.919 66.97 50.491 60.428 51.927 62.2181 53.7356 63.6742 55.791 64.695L53.078 69.217C52.7938 69.6906 52.9474 70.3048 53.421 70.589 53.5109 70.643 53.6088 70.6825 53.711 70.706L56.643 71.383C56.876 75.859 55.078 83.622 52.043 89L54.318 89C57.0051 83.6704 58.4852 77.8143 58.653 71.848L61.507 72.506C61.5807 72.5235 61.6562 72.5322 61.732 72.532 62.2843 72.5336 62.7333 72.0871 62.7348 71.5348 62.7349 71.5089 62.7339 71.4829 62.732 71.457L62.312 65.906C71.522 65.306 81.606 55.006 84.312 43.144 87.141 30.6 81.065 19.58 69.861 16.944ZM35.6 8.358C40.0415 7.28473 44.728 8.03644 48.611 10.445 51.8242 12.5096 54.3691 15.4624 55.937 18.945 55.737 19.058 55.537 19.154 55.337 19.275 50.429 22.324 46.898 27.556 45.381 34.005 44.0346 32.3854 42.4422 30.9874 40.662 29.862 36.3281 27.1715 31.0963 26.3315 26.138 27.53 24.7594 27.8524 23.4187 28.3194 22.138 28.923 21.175 18.9 26.481 10.5 35.6 8.358ZM40.506 79.658 35.371 80.843 35.709 76.373 38.267 75.925ZM38.485 73.858 34.678 74.525 34.517 74.525C25.95 74.525 16.241 64.681 13.646 53.296 11.062 41.865 16.51 31.85 26.6 29.477 31.0414 28.4034 35.7278 29.1548 39.611 31.563 41.6838 32.8746 43.4768 34.583 44.887 36.59 43.801 43.904 45.196 52.285 48.928 58.239 47.527 65.581 43.672 71.833 38.481 73.851ZM55.5 69.066 57.739 65.333 60.297 65.781 60.635 70.252ZM82.358 42.7C79.758 54.088 70.058 63.933 61.486 63.932L61.325 63.932 57.514 63.265C49.35 60.086 44.485 46.436 47.305 34.548 48.69 28.576 51.917 23.757 56.392 20.977 60.2741 18.5688 64.9594 17.8171 69.4 18.89 79.489 21.264 84.937 31.279 82.358 42.7Z"/></g></svg>