<svg viewBox="0 0 96 96" xmlns="http://www.w3.org/2000/svg" xmlns:xlink="http://www.w3.org/1999/xlink" id="Icons_Caterpillar_M" overflow="hidden"><path d="M89.4 16.2C89 15.9 88.3 16 88 16.4L88 16.4 81.2 25.7C79.5 25 77.6 24.9 75.8 25.3L69.1 16.4C68.8 16 68.1 15.9 67.7 16.2 67.3 16.5 67.2 17.2 67.5 17.6L73.8 26C72.2 26.8 70.8 28.1 69.9 29.7 68.9 28.8 67.4 28.4 66 28.6 64.3 29.1 63.1 30.5 62.6 32.1 61.5 30.8 59.8 30.1 58.1 30.4 57.1 30.6 56.3 31.2 55.7 32 55.3 31.1 54.7 30.3 54.1 29.6 52.6 27.8 50.8 27 49.1 27.4 47.4 27.8 46.2 29.3 45.5 31.5 43.5 29 40.8 27.7 38.6 28.6 37 29.2 35.8 30.8 35.4 33.1 35.3 33.7 35.3 34.3 35.3 34.9 32.8 33 30 32.4 28.1 33.6 26 35 25.5 38.1 26.6 41.5 26 41.2 25.4 41 24.7 40.8 22.4 40.1 20.4 40.5 19.2 41.7 17.8 43.1 17.6 45.3 18.5 47.7 16.3 47.1 14.4 47.5 13.2 48.7 11.6 50.3 11.6 53 12.9 55.9 11.5 56.9 10.9 58.6 11 60.8 10.2 60.8 9.4 61.1 8.7 61.5 6.2 63.3 6.4 68 9.2 72.1 10.4 73.9 12 75.3 13.9 76.3 14.7 76.7 15.6 76.9 16.6 76.9 17.2 76.9 17.8 76.8 18.3 76.6L22 79.6C22.4 80 23.1 79.9 23.4 79.5 23.8 79.1 23.7 78.4 23.3 78.1L20 75.3C20.4 74.7 20.7 74.1 20.8 73.4 21.3 73.5 21.8 73.6 22.4 73.6 23.3 73.6 24.1 73.4 24.9 72.9L25 72.8 27.2 74.7C27.6 75.1 28.3 75 28.6 74.6 28.9 74.2 28.9 73.6 28.5 73.2L26.2 71.2C27 69.5 26.9 67 25.9 64.4 26.6 64.2 27.3 63.9 27.9 63.3L28 63.2 31.1 65.5C31.5 65.8 32.2 65.7 32.5 65.3 32.8 64.9 32.7 64.2 32.3 63.9L29 61.5C29.3 60.3 29.2 59.1 28.9 57.9 28.9 57.7 28.8 57.6 28.7 57.4 29.3 57.6 30 57.7 30.6 57.7 31.5 57.7 32.3 57.5 33.1 57.1L35 59.3C35.4 59.7 36 59.8 36.4 59.4 36.8 59 36.9 58.4 36.5 58L34.5 55.7C35.2 54.3 35.4 52.7 34.9 51.3 35.6 51.6 36.4 51.7 37.1 51.7 37.6 51.7 38.1 51.6 38.6 51.4L40.9 54.3C41.2 54.7 41.9 54.8 42.3 54.5 42.7 54.2 42.8 53.5 42.5 53.1L42.5 53.1 40.3 50.3C41.1 49.3 41.5 48.1 41.5 46.9 42.3 47.4 43.2 47.6 44.1 47.7 44.3 47.7 44.4 47.7 44.6 47.7L45.7 50.6C45.9 51.1 46.5 51.4 47 51.2 47.5 51 47.8 50.4 47.6 49.9L47.6 49.9 46.5 47C47.3 46.5 47.8 45.7 48.2 44.9 49.1 46.3 50.5 47.3 52.1 47.7L52.4 50.7C52.4 51.2 52.9 51.6 53.4 51.6L53.5 51.6C54 51.5 54.5 51.1 54.4 50.5L54.1 47.5C54.9 47.2 55.6 46.7 56 46 57.4 48.7 59.3 50.4 61.3 50.7L62 53.7C62.1 54.2 62.7 54.6 63.2 54.5 63.7 54.4 64.1 53.8 64 53.3L64 53.3 63.3 50.4C64.6 49.7 65.6 48.5 66 47.1 66.9 48.2 68.3 48.8 69.7 48.9 69.9 48.9 70.1 48.9 70.3 48.8L71 51.8C71.1 52.3 71.7 52.7 72.2 52.5 72.7 52.4 73 51.8 72.9 51.3L72.1 47.9C73.4 46.6 74.2 44.9 74.3 43 79 44.9 84.4 42.6 86.3 37.9 87.9 33.8 86.5 29.2 82.9 26.8L89.5 17.8C90 17.1 89.9 16.5 89.4 16.2ZM14.8 74.4C13.2 73.6 11.9 72.4 10.9 70.9 8.8 67.8 8.4 64.3 10 63.1 10.4 62.8 10.8 62.7 11.3 62.7 13 62.7 15.3 64.2 17 66.6 19.1 69.7 19.5 73.2 17.9 74.4 16.9 75 15.7 74.9 14.8 74.4ZM20.8 71.3C20.6 69.2 19.8 67.3 18.6 65.6L18.6 65.6C17.3 63.6 15.4 62 13.1 61.2 13.1 61.1 13.1 61.1 13.1 61 12.9 59.4 13.3 58.2 14.1 57.6 14.5 57.4 14.9 57.2 15.4 57.2 17.3 57.2 20.1 58.8 22.3 62 25.1 66 25.2 70.1 23.6 71.2 22.8 71.6 21.7 71.7 20.8 71.3L20.8 71.3ZM25 62.5C24.7 61.9 24.4 61.4 24 60.8 21.3 57 17.7 54.8 14.9 55.2 13.9 53 13.8 51.1 14.7 50.2 15.2 49.7 15.9 49.5 16.6 49.5 17.1 49.5 17.7 49.6 18.2 49.7 20.2 50.4 22 51.5 23.5 53 27 56.5 27.8 60.4 26.4 61.8 26 62.2 25.5 62.5 25 62.5ZM27.4 54.7C26.7 53.6 25.9 52.6 25 51.6 23.9 50.5 22.6 49.5 21.3 48.8 19.9 46.4 19.8 44.1 20.8 43.1 21.3 42.6 22 42.4 22.7 42.4 23.2 42.4 23.8 42.5 24.3 42.6 26.3 43.3 28.1 44.4 29.6 45.9 33.1 49.4 33.9 53.3 32.5 54.7 31.5 55.8 29.6 55.8 27.4 54.7ZM34.8 48.9C34.4 48.7 34.1 48.5 33.7 48.2 33 46.9 32 45.7 31 44.7 30.6 44.3 30.1 43.9 29.7 43.5 27.7 39.8 27.8 36.3 29.3 35.3 29.7 35.1 30.1 35 30.5 35 32.4 35 35.2 36.7 37.3 40 38.5 41.7 39.2 43.8 39.5 45.9 39.6 47.5 39.2 48.7 38.4 49.3 37.6 49.9 36.2 49.6 34.8 48.9ZM41.1 44.2C40.7 42.3 39.9 40.6 38.9 39 38.5 38.3 38 37.7 37.5 37.1 37.3 35.9 37.2 34.8 37.4 33.6 37.6 32.7 38 31.1 39.3 30.6 39.5 30.5 39.8 30.5 40.1 30.5 42.1 30.5 44.7 33 46 36.6 46.8 38.4 47 40.4 46.7 42.4 46.5 43.3 46.1 44.9 44.8 45.4 43.5 45.9 42.1 45 41.4 44.4L41.1 44.2ZM53.2 45.5C51.9 45.8 50.1 44.4 48.8 42 49 39.9 48.6 37.8 47.9 35.8 47.7 35.2 47.4 34.6 47.1 34.1 47.3 31.5 48.3 29.7 49.5 29.4 49.6 29.4 49.7 29.4 49.9 29.4 51 29.5 51.9 30.1 52.6 31 53.9 32.6 54.8 34.6 55.2 36.6 56.3 41.3 55 45.1 53.2 45.5ZM62.2 48.5C60.7 48.8 58.5 46.9 57.2 43.4 57.8 41 57.8 38.5 57.2 36.1 57.1 35.5 56.9 34.9 56.7 34.4 56.9 33.5 57.6 32.7 58.5 32.4 58.6 32.4 58.7 32.4 58.9 32.4 60 32.5 60.9 33.1 61.6 34 62.9 35.6 63.8 37.6 64.2 39.6 65.3 44.3 64 48.1 62.2 48.5ZM70.1 46.7C69.1 46.9 67.7 46.1 66.6 44.5 66.9 40.9 66.1 37.3 64.3 34.2 64.6 32.2 65.5 30.8 66.6 30.6 66.7 30.6 66.8 30.6 67 30.6 68.1 30.7 69 31.3 69.7 32.2 71 33.8 71.9 35.8 72.3 37.8 73.2 42.5 71.9 46.3 70.1 46.7ZM85.1 34.3C85.1 38.3 81.9 41.5 77.8 41.6 76.6 41.6 75.5 41.3 74.4 40.8 74.4 39.7 74.2 38.5 74 37.4 73.5 35.2 72.6 33.1 71.2 31.3 72.9 27.7 77.2 26.1 80.9 27.9 83.5 29 85.1 31.5 85.1 34.3Z"/></svg>