<svg viewBox="0 0 96 96" xmlns="http://www.w3.org/2000/svg" xmlns:xlink="http://www.w3.org/1999/xlink" id="Icons_HotAirBalloon_M" overflow="hidden"><g id="Icons"><path d="M53.873 69.044 55 69.044C56 62.044 75.5 44.761 75.5 33.044 75.5 18.827 63.948 9 47.5 9 31.052 9 19.5 18.827 19.5 33.044 19.5 44.761 39 62.044 40 69.044L41.127 69.044 43.112 75 39 75 39 84.381C39.0506 85.8699 40.2927 87.0393 41.782 87L53.218 87C54.7073 87.0393 55.9494 85.8699 56 84.381L56 75 51.887 75ZM73.5 33.044C73.5 39.27 66.778 48.044 61.376 55.094 57.682 59.916 54.64 63.886 53.476 67.044L50.328 67.044C51.098 64.464 52.053 61.567 53.199 58.144 55.858 50.189 59.499 39.296 59.499 33.118 59.499 22.266 56.52 14.232 51.77 11.269 51.75 11.256 51.754 11.249 51.777 11.251 64.764 12.779 73.5 21.312 73.5 33.044ZM57.5 33.114C57.5 38.965 53.918 49.679 51.3 57.506 50.124 61.024 49.069 64.213 48.239 67.044L46.759 67.044C45.929 64.213 44.874 61.023 43.697 57.502 41.081 49.679 37.497 38.965 37.497 33.114 37.5 20.682 41.612 12 47.5 12 53.388 12 57.5 20.682 57.5 33.114ZM33.624 55.094C28.222 48.044 21.5 39.27 21.5 33.044 21.5 21.312 30.237 12.779 43.222 11.244 43.245 11.244 43.249 11.249 43.229 11.262 38.479 14.225 35.5 22.262 35.5 33.111 35.5 39.289 39.142 50.182 41.8 58.137 42.946 61.564 43.9 64.461 44.671 67.037L41.526 67.037C40.36 63.886 37.318 59.916 33.624 55.094ZM51.764 69.044 49.779 75 45.221 75 43.236 69.044ZM54 84.381C53.9411 84.7599 53.6003 85.0296 53.218 85L41.782 85C41.3997 85.0296 41.0589 84.7599 41 84.381L41 77 54 77Z"/></g></svg>