<svg viewBox="0 0 96 96" xmlns="http://www.w3.org/2000/svg" xmlns:xlink="http://www.w3.org/1999/xlink" id="Icons_Helicopter_M" overflow="hidden"><g id="Icons"><path d="M82.043 26 53.043 26 53.043 24C53.043 23.4477 52.5953 23 52.043 23 51.4907 23 51.043 23.4477 51.043 24L51.043 26 22.043 26C21.4907 26 21.043 26.4477 21.043 27 21.043 27.5523 21.4907 28 22.043 28L51.043 28 51.043 35.01 45.5322 35.01 43.7386 38 16.4141 38 9.707 31.293C9.30975 30.9093 8.67668 30.9203 8.293 31.3176 7.91872 31.7051 7.91872 32.3195 8.293 32.707L15 39.4141 15 49C15 49.5523 15.4477 50 16 50 16.5523 50 17 49.5523 17 49L17 40 39.001 40 39.002 42.0117 39.002 51.0142C39.002 56.4858 43.722 61.5671 49.002 63.0176L69.0233 63.0176C79.5739 63.0176 77.2733 51.1943 77.2733 51.1943 77.2733 51.1943 74.5336 39.771 61.0029 39.011L58.5829 35.0098 53.0429 35.0098 53.0429 28 82.0429 28C82.5952 28 83.0429 27.5523 83.0429 27 83.0429 26.4477 82.5952 26 82.0429 26ZM59.2916 40.0461 59.8375 40.9487 60.8907 41.0078C72.4207 41.6555 75.1033 50.8101 75.3172 51.617 75.3283 51.6826 75.3455 51.7822 75.3738 52.007 75.3746 52.013 75.3694 52.0146 75.3638 52.0146L63.6445 52.0146 58.91 41.5867C58.6983 41.0766 58.1132 40.8347 57.6031 41.0464 57.093 41.2581 56.8511 41.8433 57.0628 42.3534 57.0712 42.3736 57.0803 42.3936 57.09 42.4133L62.3557 54.0149 75.4857 54.0149C75.5568 55.8422 75.0217 57.6417 73.9638 59.1333 72.9131 60.4011 71.297 61.0176 69.0238 61.0176L49.2839 61.0176C44.6946 59.6376 41.002 55.2021 41.002 51.0142L41.002 42.0107 41.001 40.0107 44.8647 40.0107 45.4473 39.0396 46.6648 37.0096 57.4548 37.0096Z"/><path d="M74 71 67.0776 71 64.6776 65 62.5227 65 64.9227 71 52.0769 71 54.4769 65 52.3228 65 49.9228 71 34 71 34 73 74 73C77.8641 72.9955 80.9955 69.8641 81 66L79 66C78.9969 68.7601 76.7601 70.9969 74 71Z"/></g></svg>