<svg viewBox="0 0 96 96" xmlns="http://www.w3.org/2000/svg" xmlns:xlink="http://www.w3.org/1999/xlink" id="Icons_Apple_M" overflow="hidden"><g id="Icons"><path d="M77.255 34.512C69.74 26.328 61.155 29.187 54.249 31.484 53.214 31.828 52.215 32.161 51.261 32.44 50.7603 32.5817 50.2474 32.6758 49.729 32.721 49.629 32.176 49.519 31.632 49.385 31.097 49.0582 29.852 48.6138 28.6409 48.058 27.48 48.437 27.51 48.818 27.532 49.198 27.532 49.9634 27.5334 50.7275 27.4665 51.481 27.332 54.8121 26.845 57.9098 25.3355 60.346 23.012 65.546 17.812 65.046 9.012 65.046 9.012 65.046 9.012 64.814 9 64.405 9 62.274 9 55.324 9.352 51.046 13.713 49.1052 15.8055 47.7314 18.3593 47.055 21.132 46.9059 21.7834 46.799 22.4438 46.735 23.109L46.585 24.453C46.1712 23.6788 45.7086 22.9316 45.2 22.216 42.9689 19.1026 40.1855 16.4249 36.988 14.316L35.888 15.986C38.8823 17.9585 41.4886 20.4644 43.577 23.379 44.282 24.3716 44.8945 25.4267 45.407 26.531L46.183 28.171C46.7163 29.2625 47.1403 30.4041 47.449 31.579 47.542 31.951 47.614 32.329 47.688 32.706 47.1237 32.6595 46.5651 32.559 46.02 32.406 45.131 32.146 44.19 31.84 43.205 31.52 36.179 29.238 26.558 26.112 19.025 34.414 12.484 41.629 13.809 66.802 23.67 79.853 28.09 85.704 35.927 91.388 48.24 85.519 51.2927 87.0866 54.6612 87.9414 58.092 88.019 64.845 88.019 69.579 84.056 72.652 80.005 82.534 66.98 83.835 41.771 77.255 34.512ZM48.723 23.331C48.7792 22.7508 48.8717 22.1747 49 21.606 49.5966 19.1741 50.8009 16.9334 52.5 15.094 55.569 11.982 60.363 11.221 63.013 11.048 62.832 13.694 62.056 18.482 58.913 21.621 56.7767 23.6573 54.0524 24.9675 51.128 25.365 50.4919 25.4778 49.847 25.5337 49.201 25.532 48.965 25.532 48.725 25.525 48.483 25.511ZM71.054 78.8C67.065 84.059 59.946 89.146 48.685 83.514L48.24 83.291 47.793 83.512C36.45 89.129 29.28 83.967 25.261 78.649 16.061 66.476 14.548 42.327 20.501 35.76 27.165 28.415 35.713 31.193 42.582 33.424 43.582 33.751 44.548 34.063 45.454 34.324 46.2828 34.5654 47.1376 34.7067 48 34.745 48.249 34.759 48.49 34.77 48.49 34.77 49.6171 34.8129 50.7438 34.6745 51.827 34.36 52.802 34.074 53.827 33.734 54.884 33.381 61.568 31.156 69.144 28.634 75.784 35.86 81.765 42.465 80.275 66.649 71.054 78.8Z"/></g></svg>