<svg viewBox="0 0 96 96" xmlns="http://www.w3.org/2000/svg" xmlns:xlink="http://www.w3.org/1999/xlink" id="Icons_BeachUmbrella_M" overflow="hidden"><g id="Icons"><path d="M81.147 79.633 49.107 47.593 49.459 47.241C50.4091 46.276 51.5123 45.4748 52.724 44.87 53.5423 44.4394 54.4321 44.1616 55.35 44.05 55.45 42.05 57.05 39.35 59.45 36.85 61.95 34.35 64.65 32.85 66.65 32.75 66.75 30.75 68.35 28.05 70.75 25.55 73.15 23.15 75.95 21.65 77.85 21.45 71.023 15.3036 62.144 11.9327 52.958 12 42.483 11.9801 32.4239 16.0974 24.969 23.456L22.521 21.007C22.1828 20.6568 21.6449 20.5929 21.234 20.854 20.7739 21.1595 20.6487 21.7802 20.9542 22.2403 20.9909 22.2956 21.0331 22.3471 21.08 22.394L23.553 24.868C20.239 28.2277 17.5367 32.1401 15.568 36.429 9.358 50.285 11.214 66.586 21.45 77.95 21.65 75.95 23.15 73.25 25.55 70.85 28.05 68.35 30.75 66.85 32.75 66.75 32.85 64.75 34.45 62.05 36.85 59.55 39.35 57.05 42.05 55.55 44.05 55.45 44.1785 54.3512 44.5308 53.2904 45.085 52.333 45.6741 51.2545 46.4184 50.2683 47.294 49.406L47.694 49.006 79.77 81.084C80.1605 81.4745 80.7937 81.4744 81.1842 81.0839 81.2022 81.0659 81.2195 81.0473 81.236 81.028 81.5718 80.61 81.5332 80.0049 81.147 79.633ZM58.007 35.465C56.3401 37.1301 54.9916 39.086 54.028 41.236 44.549 32.12 34.938 25.322 29.328 23.807 29.136 23.755 28.953 23.717 28.769 23.678 30.2249 22.715 31.8278 21.9956 33.515 21.548 42.637 19.121 54.434 22.979 63.9 31.376 61.6805 32.3285 59.6761 33.7193 58.007 35.465ZM37.245 17.393C42.1876 15.1751 47.5406 14.0192 52.958 14 60.4602 13.9617 67.7775 16.3268 73.838 20.749 72.1706 21.6628 70.6444 22.8134 69.307 24.165 67.6315 25.8368 66.2782 27.803 65.315 29.965 55.415 21.139 42.959 17.075 33.207 19.565 33.172 19.574 33.169 19.565 33.2 19.547 34.5 18.7416 35.8512 18.0221 37.245 17.393ZM24.136 69.436C22.7955 70.7567 21.653 72.2643 20.744 73.912 13.227 63.619 11.857 49.6 17.393 37.247 18.0632 35.7578 18.8368 34.3173 19.708 32.936 19.727 32.906 19.735 32.909 19.726 32.943 17.163 42.727 21.252 55.303 30.156 65.308 27.8838 66.2498 25.8333 67.6558 24.136 69.436ZM35.407 58.165C33.7781 59.7962 32.4509 61.7029 31.487 63.797 23.107 54.289 19.258 42.485 21.679 33.381 22.1236 31.7046 22.8368 30.1113 23.791 28.663 23.829 28.844 23.866 29.025 23.917 29.214 25.459 34.923 32.137 44.362 41.428 54.021 39.1557 54.9705 37.1054 56.3817 35.407 58.165ZM43.428 51.194C43.1864 51.6294 42.9681 52.0774 42.774 52.536 33.88 43.268 27.28 34 25.848 28.692 25.598 27.765 25.422 26.537 26.061 25.899 26.646 25.313 27.874 25.487 28.802 25.737 34.124 27.174 43.414 33.794 52.673 42.707 52.433 42.807 52.19 42.907 51.941 43.027 50.4596 43.758 49.1126 44.7345 47.957 45.915L45.909 47.963C44.9354 48.919 44.1003 50.0066 43.428 51.194Z"/></g></svg>