<svg viewBox="0 0 96 96" xmlns="http://www.w3.org/2000/svg" xmlns:xlink="http://www.w3.org/1999/xlink" id="Icons_SmallPaintBrush_M" overflow="hidden"><g id="Icons"><path d="M84.888 7.3C83.8517 7.34772 82.8658 7.76079 82.105 8.466L39.228 48.7 27.166 62.558C26.1267 62.2375 25.0455 62.0737 23.958 62.072 21.0905 62.0638 18.3378 63.1976 16.308 65.223 13.208 68.423 14.108 72.223 13.608 75.923 13.2576 80.0743 10.4637 83.6158 6.508 84.923 9.07625 86.8403 12.2032 87.8609 15.408 87.828 21.486 87.828 27.627 84.505 31.608 80.522 34.3192 77.7879 35.3783 73.8217 34.391 70.1L48.417 57.891 88.84 14.985C90.4767 13.2068 90.3619 10.4384 88.5837 8.80171 88.5663 8.78566 88.5487 8.76976 88.531 8.754 87.5899 7.75675 86.2571 7.22483 84.888 7.3ZM30.078 79.229C26.814 82.444 21.286 85.834 15.407 85.834 15.0003 85.834 14.6003 85.817 14.207 85.783 14.2018 85.7813 14.1989 85.7756 14.2006 85.7704 14.2016 85.7674 14.204 85.765 14.207 85.764 16.9147 84.7307 19.3636 83.1177 21.382 81.038 21.7515 80.6263 21.7172 79.993 21.3055 79.6235 20.8938 79.254 20.2605 79.2883 19.891 79.7 17.5145 82.1023 14.5083 83.7851 11.218 84.555 11.2125 84.5555 11.2076 84.5514 11.2071 84.5459 11.2069 84.543 11.2079 84.5401 11.21 84.538 13.7707 82.4714 15.3602 79.4358 15.6 76.154 15.738 75.114 15.776 74.1 15.812 73.12 15.912 70.503 15.985 68.437 17.728 66.637 21.2021 63.1927 26.8107 63.2169 30.255 66.691 30.3481 66.785 30.4392 66.881 30.528 66.979 33.6683 70.5291 33.4703 75.9188 30.078 79.229ZM33.648 68.1C32.6754 66.0819 31.0861 64.4254 29.11 63.37L38.081 53.056 44.062 59.036ZM47.033 56.451 45.574 57.721 39.4 51.543 40.638 50.121 41.454 49.354 47.772 55.671ZM87.376 13.623 49.139 54.215 42.909 47.985 83.5 9.9C84.5665 8.98546 86.1696 9.09634 87.1 10.149 88.731 11.874 87.717 13.251 87.376 13.623Z"/></g></svg>