<svg viewBox="0 0 96 96" xmlns="http://www.w3.org/2000/svg" xmlns:xlink="http://www.w3.org/1999/xlink" id="Icons_Camel_M" overflow="hidden"><g id="Icons"><path d="M93.986 22.845C94.1213 19.6111 91.7073 16.8345 88.486 16.519L83.624 16.033C82.7358 15.3476 81.7281 14.8332 80.652 14.516 76.8785 13.3193 72.8284 15.2844 71.433 18.989L70.867 20.5C69.7955 23.3528 69.2474 26.3756 69.249 29.423L69.249 36.669C69.277 37.6928 68.6247 38.6117 67.649 38.923 66.7217 39.1712 65.7414 38.7813 65.238 37.964L64.91 37.292C64.5141 36.491 64.2694 35.6238 64.188 34.734 64.176 34.586 64.159 34.434 64.141 34.289 63.3409 28.5012 58.8009 23.9449 53.016 23.124 51.0444 22.8529 49.2919 21.7283 48.224 20.049 45.8529 16.2757 41.7054 13.9898 37.249 14 32.642 14 29.715 16.5 26.632 19.53 25.932 20.216 25.564 20.572 25.232 20.892L16.981 28.629 10.327 34.659C7.66 37.112 6.006 39.513 6.006 43.9L6.006 59.171C6.00961 60.7175 5.39546 62.2014 4.3 63.293 3.90275 63.6767 3.89175 64.3098 4.27542 64.707 4.6591 65.1043 5.29217 65.1153 5.68942 64.7316 5.69776 64.7235 5.70595 64.7153 5.714 64.707 7.18662 63.2417 8.01223 61.2484 8.007 59.171L8.007 43.9C8.007 40.214 9.299 38.328 11.679 36.141L18.339 30.107 25.677 23.258 26.627 22.334C26.958 22.012 27.327 21.653 28.033 20.963 30.9 18.148 33.392 16 37.249 16 41.0194 15.9922 44.528 17.9265 46.534 21.119 47.9147 23.2938 50.1822 24.7512 52.734 25.104 53.5224 25.2169 54.2964 25.4137 55.043 25.691 58.8629 27.1092 61.5944 30.5118 62.153 34.548 62.17 34.67 62.182 34.791 62.193 34.91 62.2951 36.0444 62.6056 37.1503 63.109 38.172L63.468 38.902C64.4089 40.5355 66.326 41.338 68.15 40.862 70.0161 40.3336 71.2901 38.612 71.25 36.673L71.25 29.427C71.2484 26.6196 71.7535 23.835 72.741 21.207L73.31 19.691C74.355 16.9716 77.3444 15.5445 80.116 16.442 80.9567 16.6948 81.743 17.1017 82.435 17.642L82.65 17.803C82.7951 17.9144 82.9681 17.9836 83.15 18.003L88.29 18.517C90.4803 18.7307 92.1124 20.6337 91.99 22.831 91.986 22.8904 91.988 22.95 91.996 23.009 92.1083 23.8127 91.6527 24.588 90.896 24.881L89.916 25.269C88.8578 25.683 87.6723 25.6199 86.664 25.096 84.8211 24.1693 82.5759 24.912 81.6492 26.7548 81.3881 27.274 81.2518 27.8469 81.251 28.428L81.251 38.441C81.2281 43.6605 77.7984 48.2526 72.8 49.756L55.007 55.03 52.863 55.566C52.7281 55.6083 52.5991 55.6674 52.479 55.742 52.4606 55.7528 52.4429 55.7649 52.426 55.778 52.1663 55.9592 52.01 56.2544 52.006 56.571L52.006 76C52.0061 76.2652 52.1115 76.5195 52.299 76.707L53.126 77.535C53.6883 78.0969 54.0029 78.8601 54 79.655L54 80 49.418 80 48.006 78.586 48.006 55.95C47.9785 55.5001 47.6762 55.1138 47.246 54.979L27.32 50.049C26.9811 49.9896 26.6336 50.0862 26.374 50.312L21.468 55.212C20.9065 55.7746 20.1438 56.0899 19.349 56.088L18 56.088C17.4477 56.088 17 56.5357 17 57.088L17 76.088C16.9998 76.3531 17.1048 76.6073 17.292 76.795L18.12 77.624C18.6834 78.1836 19.0002 78.9449 19 79.739L19 80.083 14.417 80.083 13.005 78.669 13.005 45C12.9172 42.7642 13.5366 40.5576 14.775 38.694 15.1274 38.2685 15.068 37.6379 14.6425 37.2855 14.217 36.9331 13.5864 36.9925 13.234 37.418 11.6817 39.6335 10.8988 42.2969 11.005 45L11.005 79.083C11.0051 79.3482 11.1105 79.6025 11.298 79.79L13.298 81.79C13.4855 81.9775 13.7398 82.0829 14.005 82.083L20.005 82.083C20.5573 82.083 21.005 81.6353 21.005 81.083L21.005 79.739C21.0084 78.4135 20.4821 77.1415 19.543 76.206L19.007 75.669 19.007 58.083 19.353 58.083C20.6775 58.0864 21.9486 57.5608 22.884 56.623L27.391 52.123 46.01 56.73 46.01 79C46.0101 79.2652 46.1154 79.5195 46.303 79.707L48.303 81.707C48.488 81.8921 48.7383 81.9973 49 82L55 82C55.5523 82 56 81.5523 56 81L56 79.655C56.0033 78.3293 55.4765 77.0573 54.537 76.122L54.002 75.586 54.002 57.342 55.529 56.959 58.003 56.226 58.003 76C58.0028 76.2651 58.1078 76.5193 58.295 76.707L59.122 77.535C59.6859 78.0961 60.002 78.8595 60 79.655L60 80 58 80C57.4477 80 57 80.4477 57 81 57 81.5523 57.4477 82 58 82L61 82C61.5523 82 62 81.5523 62 81L62 79.655C62.0032 78.3295 61.4769 77.0576 60.538 76.122L60.003 75.586 60.003 55.633 73.364 51.674C79.2085 49.9146 83.2183 44.5445 83.245 38.441L83.245 28.42C83.2397 27.8201 83.5509 27.2619 84.064 26.951 84.606 26.619 85.285 26.6052 85.84 26.915 87.3405 27.6643 89.0892 27.7389 90.648 27.12L91.625 26.733C93.1935 26.1115 94.1579 24.5234 93.986 22.845Z"/><path d="M25.006 75.669 25.006 59.083C25.006 58.5307 24.5583 58.083 24.006 58.083 23.4537 58.083 23.006 58.5307 23.006 59.083L23.006 76.083C23.0061 76.3477 23.1111 76.6016 23.298 76.789L24.125 77.619C24.6876 78.1804 25.0026 78.9433 25 79.738L25 80.083 23 80.083C22.4477 80.083 22 80.5307 22 81.083 22 81.6353 22.4477 82.083 23 82.083L26 82.083C26.5523 82.083 27 81.6353 27 81.083L27 79.738C27.0031 78.4128 26.4768 77.1413 25.538 76.206Z"/><circle cx="79.504" cy="19.5" r="1.5"/></g></svg>