<svg viewBox="0 0 96 96" xmlns="http://www.w3.org/2000/svg" xmlns:xlink="http://www.w3.org/1999/xlink" id="Icons_Octopus_M" overflow="hidden"><g id="Icons"><path d="M79.9223 70.8511 79.8485 70.8296C77.6991 70.3267 75.5489 71.6615 75.046 73.8109 75.0378 73.8458 75.0301 73.8809 75.0229 73.916L75.0058 74.0376C74.9654 74.1542 74.9371 74.2746 74.9213 74.397 74.8813 74.4146 74.8324 74.4346 74.7729 74.457 73.1553 74.9761 71.4424 75.1279 69.7587 74.9014 68.1625 74.8227 66.6539 74.1483 65.5307 73.0114 64.1603 71.5563 63.1704 69.7853 62.6488 67.8557 66.2394 68.9491 70.0964 68.7774 73.5756 67.3693 82.1085 63.9565 86.2591 54.2727 82.8464 45.7399 82.2811 44.3266 81.5246 42.9976 80.5981 41.79 79.312 40.1163 76.9754 39.6728 75.1654 40.7588 73.3369 41.9143 72.7272 44.2955 73.7754 46.1875 73.8346 46.2831 73.9095 46.4098 73.9632 46.4933 74.0157 46.5748 74.1456 46.7724 74.1991 46.8418 74.5945 47.3541 74.9272 47.9117 75.1904 48.5029 76.1632 50.7715 76.0954 53.352 75.0049 55.5664 73.8629 57.911 71.5126 59.4268 68.9057 59.5L68.7841 59.5C66.785 59.5486 64.8518 58.7841 63.4267 57.3813 61.9845 55.9975 61.1499 54.0982 61.1059 52.1 61.0973 50.1922 61.7775 48.3454 63.0214 46.8988 67.52 42.29 70.206 36.5708 70.206 31.6 70.206 21.11 60.576 13.2 47.806 13.2 35.036 13.2 25.406 21.11 25.406 31.6 25.406 36.788 28.0979 42.5136 32.5608 46.8671 34.0499 48.5488 34.7623 50.7796 34.5237 53.0131 33.8469 56.71 30.6632 59.421 26.9057 59.5 26.222 59.5056 25.5407 59.4177 24.8808 59.2388 23.6782 58.9112 22.602 58.2295 21.7919 57.2822 19.8012 54.7791 19.3588 51.38 20.6425 48.4507 20.9246 47.7781 21.3151 47.1563 21.7983 46.61 22.4466 45.766 22.721 44.6933 22.5575 43.6417 22.4097 42.6165 21.8746 41.6868 21.0624 41.044 20.8956 40.9194 20.7143 40.8156 20.5224 40.735 18.7746 39.7835 16.5923 40.2742 15.42 41.8823 13.0981 44.8581 11.8905 48.5525 12.0065 52.3252 12.276 60.7136 18.653 67.6371 26.9911 68.5938 29.1382 68.8337 31.3116 68.6413 33.3832 68.0278 32.9736 69.5858 32.2347 71.0379 31.2162 72.2861 29.9901 73.8474 28.1727 74.8319 26.1952 75.0061 24.5365 75.2206 22.8509 75.0695 21.2568 74.5633 21.1923 74.5394 21.1386 74.5184 21.0937 74.5003 20.8815 72.3607 19.0551 70.747 16.9057 70.8 15.8441 70.7987 14.8301 71.2398 14.1073 72.0173 13.3433 72.8307 12.9454 73.9215 13.0063 75.0358 13.1331 78.2598 15.2678 81.0582 18.3437 82.0324 20.0362 82.6847 21.8345 83.0196 23.6484 83.0202 23.9017 83.0202 24.1542 83.0135 24.4057 83.0002 25.17 83.0151 25.9345 82.9803 26.6943 82.8962 34.9431 82.1397 42.211 77.1637 45.9 69.7471 46.1558 69.2223 46.6144 68.8244 47.17 68.645 47.6973 68.4758 48.2708 68.5296 48.7574 68.7939 49.1664 69.0018 49.4992 69.3337 49.7081 69.7422 53.3944 77.1584 60.6593 82.1356 68.9062 82.895 69.7368 82.9758 70.5712 83.0109 71.4057 83 73.4416 83.0096 75.4657 82.6907 77.4 82.0557 80.3778 81.1462 82.5108 78.5275 82.7989 75.4272 83.1169 73.3976 81.8891 71.4445 79.9223 70.8511ZM80.8223 75.1152 80.8081 75.2261C80.6021 77.5354 79.0102 79.4864 76.7891 80.1514 75.052 80.7221 73.2341 81.0086 71.4057 81 70.634 81.0108 69.8623 80.9786 69.0942 80.9038 61.5361 80.21 54.8775 75.649 51.5 68.8521 51.1039 68.0615 50.465 67.4186 49.6768 67.0176 48.7203 66.5045 47.5958 66.4041 46.5635 66.7397 45.4912 67.0821 44.6047 67.8468 44.1089 68.8574 40.7229 75.6612 34.0508 80.2223 26.482 80.9074 25.7751 80.984 25.0639 81.0153 24.353 81.0012 22.5251 81.0894 20.6989 80.7966 18.9903 80.1412 16.6931 79.4288 15.0953 77.3446 15.0039 74.9412 14.9695 74.3691 15.1714 73.808 15.5625 73.389 15.9089 73.0145 16.3956 72.8011 16.9057 72.8 18.0308 72.7382 19.0031 73.5779 19.1057 74.7 19.1057 75.7088 19.5935 76.076 20.5891 76.4485 22.461 77.0556 24.4438 77.2425 26.3962 76.9959 28.9071 76.7708 31.2142 75.5206 32.7738 73.54 34.3751 71.555 35.3881 69.1609 35.6977 66.6294L35.9223 64.9102 34.3212 65.5767C32.0803 66.5194 29.6356 66.874 27.2192 66.6067 19.8304 65.8427 14.166 59.6975 14.0053 52.271 13.9054 48.9446 14.9751 45.6884 17.0282 43.0693 17.6482 42.2182 18.8245 41.9985 19.7099 42.5684L19.8656 42.6484C20.2533 42.9746 20.5072 43.4321 20.579 43.9336 20.6612 44.4356 20.5382 44.9495 20.2377 45.3599 19.6269 46.0575 19.1362 46.8516 18.7856 47.7099 17.2261 51.3072 17.7826 55.4719 20.2319 58.5336 21.3023 59.8031 22.7315 60.7193 24.3319 61.162 25.1772 61.3931 26.0503 61.5068 26.9266 61.4999L26.93 61.4999C31.6627 61.4053 35.6693 57.9803 36.4989 53.3199 36.8205 50.4725 35.9133 47.6229 34.0047 45.4855 29.9347 41.5118 27.4061 36.1915 27.4061 31.6007 27.4061 22.2507 36.1761 15.2007 47.8061 15.2007 59.4361 15.2007 68.2061 22.2507 68.2061 31.6007 68.2061 36.0616 65.7329 41.2584 61.5532 45.5421 59.966 47.3658 59.0962 49.7045 59.106 52.1221 59.156 54.6544 60.2097 57.0632 62.0352 58.8189 63.839 60.5874 66.2796 61.5542 68.8052 61.5005L68.9385 61.5C72.3016 61.4127 75.3358 59.4587 76.8066 56.4331 78.1502 53.6957 78.2297 50.5077 77.0244 47.7066 76.6786 46.9256 76.2353 46.1916 75.7051 45.522L75.563 45.2857C74.9697 44.3301 75.2542 43.0751 76.2017 42.4688 77.1396 41.9009 78.3551 42.1355 79.0142 43.0117 83.9338 49.4282 82.7203 58.618 76.3038 63.5376 75.242 64.3517 74.0735 65.0165 72.8311 65.5132 69.2534 66.9627 65.2436 66.9153 61.7011 65.3818L60.0634 64.6768 60.3158 66.4419C60.7132 69.4273 62.036 72.2131 64.0985 74.4077 65.5556 75.8946 67.5168 76.7817 69.5956 76.8941 71.5664 77.1497 73.5695 76.9593 75.4569 76.3369 76.4731 75.9561 76.8847 75.4839 76.9047 74.6651 76.9553 74.5234 76.9876 74.3759 77.0009 74.2261 77.2669 73.1993 78.2867 72.5574 79.3276 72.7617 80.3498 73.0547 80.9918 74.0654 80.8227 75.1152Z"/><circle cx="42.5058" cy="43.2" r="2.5"/><path d="M53.5058 40.7C52.1251 40.7 51.0058 41.8193 51.0058 43.2 51.0058 44.5807 52.1251 45.7 53.5058 45.7 54.8393 45.7472 55.9586 44.7045 56.0058 43.371 56.0078 43.314 56.0078 43.257 56.0058 43.2 56.0193 41.8328 54.9219 40.7135 53.5546 40.7 53.5384 40.6998 53.5221 40.6998 53.5058 40.7Z"/></g></svg>